<!DOCTYPE svg PUBLIC "-//W3C//DTD SVG 1.1//EN" "http://www.w3.org/Graphics/SVG/1.1/DTD/svg11.dtd">
<!-- Uploaded to: SVG Repo, www.svgrepo.com, Transformed by: SVG Repo Mixer Tools -->
<svg fill="#ffffff" version="1.1" id="Capa_1" xmlns="http://www.w3.org/2000/svg" xmlns:xlink="http://www.w3.org/1999/xlink" width="800px" height="800px" viewBox="0 0 470.168 470.167" xml:space="preserve" transform="rotate(180)">
<g id="SVGRepo_bgCarrier" stroke-width="0"/>
<g id="SVGRepo_tracerCarrier" stroke-linecap="round" stroke-linejoin="round"/>
<g id="SVGRepo_iconCarrier"> <g> <g> <path d="M469.897,246.701c-0.006-0.031-0.026-0.058-0.031-0.089c-0.125-8.442-0.704-16.964-1.901-25.539 c-9.386-67.469-44.415-125.133-93.816-164.671c-0.452-0.596-1.013-1.118-1.722-1.494c-0.084-0.047-0.179-0.042-0.272-0.087 C319.281,13.356,250.366-7.504,178.717,2.461c-0.086,0.01-0.146,0.063-0.23,0.082c-0.082,0.016-0.163-0.013-0.244,0.005 c-0.279,0.063-0.499,0.236-0.756,0.343c-0.333,0.135-0.672,0.242-0.968,0.441c-0.297,0.192-0.518,0.438-0.765,0.688 c-0.247,0.242-0.494,0.457-0.692,0.735c-0.2,0.291-0.313,0.609-0.452,0.931c-0.134,0.31-0.286,0.601-0.36,0.94 c-0.082,0.354-0.06,0.719-0.066,1.097c-0.005,0.268-0.086,0.525-0.047,0.8c0.01,0.082,0.063,0.14,0.074,0.221 c0.019,0.087-0.01,0.166,0.005,0.252l8.328,35.961C78.499,60.333,0.265,150.87,0.265,256.391 c0,117.88,95.896,213.776,213.774,213.776c24.275,0,48.07-4.03,70.775-11.989c1.878-0.655,3.06-2.263,3.417-4.073 c1.307-0.152,2.618-0.226,3.942-0.409c33.298-4.625,63.622-17.072,89.449-35.145c0.482-0.247,0.966-0.499,1.365-0.898 c0.042-0.031,0.042-0.078,0.083-0.109c53.85-38.358,87.613-101.519,86.811-170.318 C469.855,247.047,469.923,246.874,469.897,246.701z M457.325,222.545c0.95,6.827,1.517,13.623,1.748,20.372l-117.334,17.947 c-0.127-2.504-0.305-5.02-0.662-7.549c-3.612-25.98-16.231-48.523-34.27-64.951l64.674-120.335 C416.688,105.788,448.584,159.76,457.325,222.545z M264.888,341.537c-0.101,0.021-0.199,0.011-0.301,0.031l-3.643-32.085 c10.72-2.997,19.375-10.356,24.231-19.832l35.051,15.119C308.683,324.078,288.845,338.198,264.888,341.537z M167.456,406.414 c-28.387-24.604-46.728-58.216-51.954-95.765c-2.57-18.482-0.827-36.871,4.667-54.163l69.844,4.724 c-3.964,9.481-5.399,19.838-3.948,30.284c2.426,17.465,11.069,32.54,23.342,43.397L167.456,406.414z M220.5,171.71 c9.798-1.359,19.459-1.181,28.759,0.308l-4.846,53.625c-2.939-0.143-5.905-0.026-8.874,0.386 c-15.347,2.133-28.945,10.118-38.289,22.483c-0.565,0.751-1.048,1.538-1.57,2.314l-71.621-4.851 c3.94-9.323,8.922-18.266,15.179-26.549C159.064,193.196,187.926,176.248,220.5,171.71z M330.427,254.794 c1.974,14.205-0.153,28.001-5.365,40.338l-36.373-15.686c0.818-4.147,1.019-8.499,0.398-12.914 c-1.728-12.566-8.273-23.694-18.395-31.35c-4.776-3.601-10.078-6.191-15.654-7.785l4.805-53.053 C296.137,184.435,324.919,215.165,330.427,254.794z M196.708,290.003c-3.59-25.812,14.488-49.733,40.3-53.324 c9.717-1.346,19.375,1.17,27.208,7.086c7.832,5.915,12.881,14.524,14.23,24.247c2.138,15.465-8.678,29.797-24.133,31.947 c-0.33,0.042-0.587,0.21-0.891,0.312c-0.363,0.119-0.751,0.188-1.072,0.377c-0.294,0.174-0.504,0.426-0.761,0.646 c-0.263,0.231-0.562,0.432-0.782,0.709c-0.221,0.273-0.33,0.604-0.482,0.918c-0.151,0.306-0.346,0.578-0.441,0.914 c-0.109,0.347-0.078,0.729-0.109,1.103c-0.021,0.33-0.111,0.629-0.078,0.954l4.108,36.122 C225.306,340.701,200.784,319.274,196.708,290.003z M362.936,61.236l-64.589,120.188c-12.21-9.058-26.32-15.48-41.438-18.792 c-0.441-0.166-0.872-0.36-1.366-0.409c-0.114-0.01-0.219,0.044-0.335,0.039c-11.182-2.258-22.863-2.816-34.761-1.323 L186.054,12.443C251.407,4.944,314.079,23.973,362.936,61.236z M290.684,443.04c-40.972,5.695-81.739-4.861-114.794-29.765 l42.144-71.839c12.105,7.822,26.586,12.037,41.788,11.324c0.011,0,0.021,0,0.021,0c0.199,0,0.404-0.01,0.607-0.038 c0.055-0.005,0.075-0.031,0.111-0.036c1.933-0.109,3.854-0.242,5.796-0.51c12.009-1.669,23.129-5.726,32.924-11.605l71.497,72.374 C347.346,428.341,320.252,438.924,290.684,443.04z M379.744,406.724l-71.523-72.406c10.138-7.952,18.42-18.016,24.221-29.454 c0.11-0.178,0.258-0.341,0.341-0.551c0.016-0.037,0.011-0.073,0.021-0.109c4.962-9.975,8.021-20.968,8.86-32.443l117.466-17.973 C457.798,315.248,427.45,371.412,379.744,406.724z"/> </g> </g> </g>
</svg>